# xmcd CD database file
#
# Track frame offsets:
#	150
#	20990
#	40608
#	62060
#	78681
#	98033
#	129282
#	147285
#	166166
#	186759
#	204917
#	226297
#	245811
#	273541
#	294449
#	315542
#
# Disc length: 4503 seconds
#
# Revision: 0
# Processed by: cddbd v1.5.2PL0 Copyright (c) Steve Scherf et al.
# Submitted via: CDex 1.50beta10
#
DISCID=e1119510
DTITLE=Jacky RAPON - Intensité
DYEAR=2007
DGENRE=Rhythmic Soul
TTITLE0=Ton pied mon pied
TTITLE1=Love story
TTITLE2=Déclaration
TTITLE3=Enveloppe moi
TTITLE4=On se ressemble
TTITLE5=Si sé love
TTITLE6=Mi amor
TTITLE7=Fallait pas
TTITLE8=T'en vas pas
TTITLE9=Prends ton temps
TTITLE10=Aïda
TTITLE11=Helena (feat.Olivier N'GOMA)
TTITLE12=L'anmou kreol
TTITLE13=Quelques mots d'amour (feat. Monique SEKA)
TTITLE14=L'enfant qui naîtra
TTITLE15=Salut les amoureux
EXTD=YEAR: 2007
EXTT0=
EXTT1=
EXTT2=
EXTT3=
EXTT4=
EXTT5=
EXTT6=
EXTT7=
EXTT8=
EXTT9=
EXTT10=
EXTT11=
EXTT12=
EXTT13=
EXTT14=
EXTT15=
PLAYORDER=
